<?xml version="1.0" standalone="no"?>
<!DOCTYPE svg PUBLIC "-//W3C//DTD SVG 20010904//EN"
 "http://www.w3.org/TR/2001/REC-SVG-20010904/DTD/svg10.dtd">
<svg version="1.0" xmlns="http://www.w3.org/2000/svg"
 width="688.000000pt" height="688.000000pt" viewBox="0 0 688.000000 688.000000"
 preserveAspectRatio="xMidYMid meet">
<metadata>
Created by potrace 1.14, written by Peter Selinger 2001-2017
</metadata>
<g transform="translate(0.000000,688.000000) scale(0.100000,-0.100000)"
fill="#000000" stroke="none">
<path d="M3359 6875 c-3 -2 -20 -7 -39 -10 -41 -7 -141 -46 -206 -81 -26 -14
-149 -78 -273 -141 -125 -64 -298 -153 -386 -198 -88 -45 -254 -131 -370 -190
-299 -153 -645 -331 -680 -349 -16 -9 -35 -16 -42 -16 -6 0 -13 -4 -15 -8 -1
-5 -30 -22 -63 -38 -33 -17 -102 -51 -152 -77 -51 -26 -96 -47 -99 -46 -4 0
-10 -3 -13 -8 -3 -5 -82 -47 -176 -95 -480 -244 -468 -236 -512 -325 -23 -48
-28 -70 -27 -128 0 -45 7 -82 18 -102 9 -18 17 -36 17 -40 0 -14 63 -74 103
-100 39 -25 234 -126 581 -302 105 -52 192 -98 195 -101 3 -3 104 -55 225
-116 213 -107 675 -342 1035 -526 96 -50 181 -95 188 -100 6 -6 12 -7 12 -4 0
4 13 -2 29 -13 16 -12 36 -21 44 -21 9 0 18 -4 21 -8 3 -5 49 -31 103 -57 54
-27 100 -53 101 -57 2 -5 8 -8 13 -8 5 0 64 -27 132 -60 144 -70 215 -91 317
-91 148 -1 121 -13 1495 691 116 60 302 155 415 212 113 56 207 105 210 108 3
3 102 54 220 113 407 206 555 282 560 287 3 3 12 6 20 8 8 2 22 9 30 16 8 6
28 18 44 26 46 23 109 104 127 162 46 147 -19 280 -177 359 -38 19 -116 59
-174 89 -58 30 -107 54 -110 55 -3 0 -11 4 -19 9 -8 5 -76 41 -150 79 -75 38
-235 120 -356 182 -121 62 -294 151 -385 197 -91 45 -167 85 -170 88 -3 3 -86
46 -185 96 -99 50 -259 132 -355 181 -96 50 -287 148 -425 218 -137 70 -268
137 -290 149 -55 30 -143 67 -185 78 -38 10 -214 21 -221 13z"/>
<path d="M935 3956 c-33 -19 -161 -85 -284 -147 -135 -69 -239 -128 -261 -149
-57 -56 -84 -122 -84 -205 1 -108 43 -182 139 -243 61 -39 276 -151 292 -153
5 0 13 -4 18 -9 9 -8 154 -82 540 -279 94 -47 172 -89 173 -93 2 -5 10 -8 18
-8 8 0 32 -11 54 -25 22 -14 40 -23 40 -21 0 3 31 -12 68 -32 38 -20 126 -66
198 -102 71 -36 131 -67 134 -70 3 -3 100 -52 215 -110 116 -57 212 -108 213
-112 2 -5 11 -8 21 -8 9 0 21 -4 26 -9 6 -5 159 -84 340 -176 182 -93 339
-174 350 -181 11 -8 27 -14 37 -14 10 0 18 -5 18 -10 0 -6 3 -9 8 -9 4 1 10 0
15 -1 4 -1 10 -3 15 -5 4 -1 14 -4 22 -8 87 -34 204 -39 310 -14 25 5 94 29
105 36 6 3 12 6 15 6 6 1 543 273 708 359 34 18 62 31 62 29 0 -2 17 7 38 20
20 13 87 48 147 78 61 30 112 57 113 62 2 4 12 7 23 7 10 0 19 5 19 10 0 6 9
10 19 10 11 0 21 3 23 8 2 4 80 45 173 92 94 47 187 95 208 108 20 12 37 20
37 16 0 -3 14 4 30 16 17 12 30 18 30 14 0 -3 6 -2 13 4 12 10 135 74 612 317
138 70 256 132 263 137 6 6 12 7 12 3 0 -5 8 -2 17 6 10 8 50 30 88 49 39 19
72 37 75 40 3 3 17 11 31 19 43 22 95 78 120 129 31 63 32 167 2 233 -32 71
-87 115 -245 196 -78 41 -209 108 -290 150 l-147 75 -173 -88 c-95 -49 -176
-93 -180 -99 -4 -5 -8 -6 -8 -2 0 5 -15 0 -32 -11 -18 -11 -168 -88 -333 -172
-165 -84 -376 -192 -470 -240 -93 -48 -269 -138 -390 -199 -121 -62 -227 -116
-235 -121 -88 -53 -288 -133 -362 -145 -18 -3 -55 -9 -83 -14 -56 -11 -54 -10
-185 -11 -52 0 -106 2 -120 5 -14 3 -41 8 -60 11 -124 19 -207 53 -529 217
-472 239 -542 275 -557 288 -8 6 -14 8 -14 4 0 -3 -15 2 -32 13 -18 11 -172
91 -343 177 -266 135 -442 227 -545 281 -14 8 -30 14 -36 14 -6 0 -23 9 -38
21 -14 11 -26 18 -26 15 0 -4 -18 5 -39 18 -60 38 -79 38 -146 2z"/>
<path d="M860 2204 c-80 -41 -211 -109 -293 -151 -81 -41 -160 -88 -177 -103
-113 -106 -113 -299 1 -407 38 -36 201 -133 223 -133 7 0 16 -4 22 -9 9 -10
145 -80 534 -277 118 -60 217 -112 218 -116 2 -5 12 -8 23 -8 10 0 19 -5 19
-12 0 -6 3 -9 6 -5 3 3 24 -5 45 -19 21 -13 39 -21 39 -18 0 4 6 1 13 -5 8 -6
96 -53 198 -104 499 -254 705 -360 714 -368 5 -5 17 -9 27 -9 10 0 18 -4 18
-10 0 -5 9 -10 19 -10 11 0 21 -3 23 -7 2 -5 95 -55 208 -112 113 -57 220
-112 238 -123 17 -11 32 -17 32 -14 0 3 21 -7 48 -22 151 -90 283 -131 402
-126 133 5 147 11 815 354 495 254 1125 575 1385 707 74 37 137 71 138 76 2 4
11 7 21 7 9 0 21 4 26 9 6 5 123 66 260 136 138 70 256 132 263 137 6 6 12 7
12 4 0 -4 10 2 22 14 12 11 27 20 33 20 33 0 122 117 133 174 12 63 5 141 -16
186 -33 71 -79 112 -192 170 -225 114 -315 162 -325 171 -5 5 -15 9 -22 9 -7
0 -31 11 -52 24 -21 14 -42 22 -45 19 -3 -4 -6 -2 -6 4 0 6 -10 13 -21 16 -15
4 -81 -25 -213 -92 -105 -54 -303 -156 -441 -226 -137 -70 -344 -176 -460
-235 -217 -111 -681 -347 -795 -405 -108 -55 -199 -91 -265 -106 -163 -37
-346 -42 -481 -14 -69 14 -120 27 -150 40 -19 8 -34 12 -34 9 0 -2 -11 3 -25
12 -14 9 -25 13 -25 9 0 -3 -15 4 -32 17 -18 13 -34 22 -36 20 -1 -1 -34 14
-72 33 -38 19 -73 36 -77 36 -5 1 -19 9 -33 18 -14 9 -83 46 -155 81 -71 36
-131 68 -133 73 -2 4 -11 7 -21 7 -9 0 -21 4 -26 9 -6 4 -131 70 -280 146
-148 76 -362 185 -475 242 -113 58 -295 151 -405 207 -110 55 -203 106 -207
111 -5 6 -8 6 -8 1 0 -6 -5 -5 -12 2 -7 7 -14 12 -17 12 -4 -1 -71 -35 -151
-76z"/>
</g>
</svg>
