<svg width="56" height="57" viewBox="0 0 56 57" fill="black" xmlns="http://www.w3.org/2000/svg">
  <path fill-rule="evenodd" clip-rule="evenodd"
    d="M30.6515 49.866C23.8905 48.7299 17.5052 49.3151 10.7566 49.6231C9.43865 49.6835 8.42258 50.7983 8.48105 52.1124C8.53958 53.4273 9.65935 54.4446 10.9774 54.385C17.3766 54.0927 23.4418 53.4884 29.8638 54.5663C31.1628 54.7846 32.3958 53.9076 32.6094 52.6106C32.8311 51.3138 31.9504 50.0835 30.6515 49.866Z"
  />
  <path fill-rule="evenodd" clip-rule="evenodd"
    d="M42.479 35.0316C31.5256 24.712 17.7206 15.2495 4.02389 8.93841C2.82756 8.38818 1.40872 8.911 0.860748 10.1056C0.312779 11.3001 0.833109 12.7175 2.02943 13.2677C15.2724 19.3705 28.624 28.522 39.2093 38.5011C40.1691 39.4028 41.6793 39.3575 42.5797 38.4003C43.48 37.4431 43.4387 35.9333 42.479 35.0316Z"
  />
  <path fill-rule="evenodd" clip-rule="evenodd"
    d="M53.3292 31.398C54.2429 21.1419 50.6097 10.9128 45.8881 2.00243C45.2674 0.840322 43.8242 0.396977 42.6672 1.01172C41.5024 1.62784 41.0607 3.0718 41.6735 4.2345C45.977 12.3492 49.4121 21.6339 48.5813 30.9748C48.4642 32.2853 49.4352 33.4435 50.7424 33.56C52.0498 33.6773 53.212 32.7077 53.3292 31.398Z" />
</svg>