<svg width="46" height="50" viewBox="0 0 46 50" fill="none" xmlns="http://www.w3.org/2000/svg">
<path fill-rule="evenodd" clip-rule="evenodd" d="M15.0721 46.0852C10.7708 44.8781 6.26742 44.2692 1.89887 43.7114C0.95795 43.5945 0.08437 44.2471 0.0171614 45.1665C-0.117256 46.0866 0.555224 46.928 1.42893 47.0449C5.66307 47.5819 10.0312 48.1566 14.131 49.3186C15.0047 49.5706 15.946 49.0518 16.2148 48.1593C16.4836 47.2674 15.9458 46.3379 15.0721 46.0852Z" fill="black"/>
<path fill-rule="evenodd" clip-rule="evenodd" d="M28.1099 28.9723C21.1874 21.908 13.3912 15.753 6.60318 8.4992C5.9983 7.82173 4.92297 7.78544 4.25088 8.41787C3.5788 9.05098 3.51185 10.1156 4.18394 10.793C10.972 18.0677 18.7682 24.2428 25.6907 31.3279C26.3628 31.9892 27.4378 31.9986 28.1099 31.3481C28.7148 30.6982 28.782 29.6336 28.1099 28.9723Z" fill="black"/>
<path fill-rule="evenodd" clip-rule="evenodd" d="M41.082 1.79985C41.2836 5.84311 41.4848 9.88637 41.6865 13.9303C41.6865 14.8564 42.4934 15.5715 43.4343 15.5265C44.3752 15.4808 45.0469 14.6925 45.0469 13.7657C44.8453 9.71567 44.644 5.66635 44.4424 1.61704C44.3752 0.690905 43.5686 -0.0194896 42.6276 0.0309167C41.7539 0.0813231 41.0148 0.874386 41.082 1.79985Z" fill="black"/>
</svg>
